<?xml version="1.0" standalone="no"?>
<!DOCTYPE svg PUBLIC "-//W3C//DTD SVG 20010904//EN"
 "http://www.w3.org/TR/2001/REC-SVG-20010904/DTD/svg10.dtd">
<svg version="1.0" xmlns="http://www.w3.org/2000/svg"
 width="300.000000pt" height="300.000000pt" viewBox="0 0 300.000000 300.000000"
 preserveAspectRatio="xMidYMid meet">
<metadata>
Created by potrace 1.11, written by Peter Selinger 2001-2013
</metadata>
<g transform="translate(0.000000,300.000000) scale(0.100000,-0.100000)"
fill="#000000" stroke="none">
<path d="M1490 2454 c-8 -1 -50 -6 -92 -9 -55 -5 -83 -12 -99 -26 -12 -10 -29
-19 -38 -19 -9 0 -31 -9 -49 -20 -18 -11 -40 -20 -50 -20 -14 1 -13 4 6 19 35
30 26 31 -35 6 -32 -13 -58 -28 -58 -33 0 -6 -4 -14 -9 -19 -5 -5 -6 -3 -2 5
11 19 -1 15 -66 -23 -93 -55 -160 -115 -147 -131 6 -8 16 -11 23 -8 6 3 2 -2
-9 -10 -11 -9 -28 -23 -37 -31 -10 -8 -20 -10 -23 -5 -4 6 -1 10 4 10 6 0 11
8 11 17 0 15 -2 15 -14 -2 -8 -11 -29 -36 -47 -56 -34 -36 -92 -126 -105 -164
-7 -20 -7 -20 14 -1 23 20 31 9 10 -13 -11 -11 -9 -12 10 -6 13 4 22 2 22 -4
0 -6 -6 -11 -12 -12 -7 0 -4 -4 7 -9 30 -13 38 -12 31 5 -7 20 3 45 19 45 16
0 30 19 21 27 -3 4 -17 -4 -31 -17 -14 -13 -25 -19 -25 -13 0 6 -9 13 -20 16
-27 7 -25 15 15 61 23 26 35 34 35 23 0 -9 -9 -25 -21 -36 -11 -10 -16 -22
-11 -25 5 -3 17 6 27 20 l17 26 19 -21 c24 -26 18 -53 -16 -71 -28 -15 -33
-30 -10 -30 8 0 15 5 15 12 0 9 3 9 11 1 15 -15 3 -34 -16 -26 -8 3 -15 0 -15
-7 0 -6 5 -8 10 -5 6 3 10 2 10 -3 0 -11 33 -24 67 -26 12 -1 26 -5 30 -10 8
-7 9 -12 11 -53 1 -13 9 -23 17 -23 9 0 12 -6 9 -15 -4 -8 -2 -15 4 -15 12 0
10 18 -6 47 -7 12 -12 24 -12 27 0 14 33 4 72 -20 23 -15 58 -28 77 -29 20 -1
50 -8 66 -15 l30 -12 -23 -9 c-13 -5 -29 -6 -35 -2 -7 4 -6 -1 2 -10 7 -9 17
-14 23 -11 5 3 16 0 25 -8 13 -10 15 -10 9 0 -8 13 24 11 98 -7 22 -5 43 -8
47 -6 8 6 39 99 39 119 0 9 -9 25 -19 35 -11 11 -21 30 -23 43 -3 23 -4 22
-35 -10 -37 -39 -84 -45 -127 -17 -21 14 -27 15 -26 4 4 -25 0 -39 -10 -39 -5
0 -10 9 -10 19 0 11 5 23 10 26 6 3 10 16 10 28 0 14 3 18 8 10 10 -16 62 -35
62 -23 0 6 -4 10 -10 10 -5 0 -10 8 -10 18 0 20 23 44 79 82 33 23 33 23 22 2
-9 -18 -9 -22 2 -22 44 0 42 78 -2 109 -19 14 -26 27 -25 48 1 15 3 29 4 31 1
1 3 5 4 10 1 4 5 13 9 20 5 8 3 12 -7 12 -9 0 -16 5 -16 10 0 6 5 10 10 10 6
0 15 11 20 25 6 17 17 25 33 25 13 0 27 3 31 8 4 4 15 7 24 8 10 1 27 2 40 3
12 0 22 6 22 12 0 7 -11 9 -29 6 -27 -6 -29 -5 -22 21 4 15 17 31 29 37 12 5
22 15 22 22 0 7 4 13 9 13 5 0 16 3 25 6 11 4 16 1 16 -10 0 -9 -7 -19 -15
-22 -23 -9 -18 -23 5 -17 22 6 43 36 33 47 -3 3 -2 6 4 6 6 0 13 -7 17 -15 3
-9 19 -15 41 -15 38 0 59 -25 34 -41 -11 -7 -10 -9 6 -9 136 -5 166 -9 180
-20 8 -7 18 -10 22 -6 3 3 1 6 -5 6 -7 0 -12 5 -12 10 0 15 30 12 30 -2 0 -7
5 -5 11 5 5 9 15 17 22 17 7 0 6 -4 -3 -10 -13 -8 -12 -12 8 -25 21 -16 33
-43 12 -30 -5 3 -10 1 -10 -4 0 -6 5 -12 10 -12 6 -1 14 -2 19 -3 5 0 19 -14
31 -29 22 -27 21 -57 -1 -57 -6 0 -9 7 -6 14 4 11 1 13 -10 9 -11 -4 -14 -2
-9 5 5 8 -3 12 -23 12 -20 0 -31 -5 -31 -14 0 -10 -9 -12 -39 -6 -25 4 -44 3
-52 -4 -9 -8 -10 -8 -5 2 4 7 1 12 -8 12 -8 0 -22 10 -30 21 -23 33 3 53 65
51 29 0 47 3 44 9 -4 5 -41 9 -85 9 -88 0 -101 -10 -74 -61 14 -28 14 -30 -3
-27 -15 3 -18 -3 -15 -34 2 -28 -1 -38 -12 -38 -8 0 -18 -9 -21 -20 -3 -11
-11 -20 -16 -20 -5 0 -9 -5 -9 -11 0 -6 6 -9 13 -6 6 2 20 0 30 -5 13 -7 24
-5 36 6 10 9 23 16 29 16 7 0 12 5 12 12 0 6 3 9 6 5 7 -7 -23 -53 -34 -51 -4
1 -12 -1 -19 -3 -6 -3 -20 0 -30 6 -22 11 -49 -1 -39 -18 4 -6 15 -11 24 -11
15 0 15 -2 2 -10 -13 -8 -12 -10 3 -10 11 0 31 -8 45 -17 15 -10 34 -22 43
-28 19 -12 132 -90 218 -149 85 -59 87 -62 63 -75 -18 -10 -23 -7 -38 19 -10
16 -29 34 -43 39 -15 5 -39 21 -55 35 -19 17 -36 24 -48 20 -11 -3 -25 0 -33
6 -8 7 -15 9 -15 5 0 -4 -11 0 -24 9 -14 9 -32 13 -41 10 -11 -5 -18 0 -22 15
-3 11 -10 21 -15 21 -5 0 -6 -9 -3 -20 6 -18 2 -20 -34 -20 -22 0 -43 -5 -46
-10 -4 -6 -15 -8 -26 -5 -10 4 -19 2 -19 -3 0 -16 31 -23 46 -11 17 14 19 -2
2 -19 -9 -9 -9 -12 0 -12 6 0 14 11 18 25 7 27 12 29 33 16 9 -6 10 -11 2 -15
-16 -11 -13 -26 4 -20 10 4 15 0 15 -10 0 -13 6 -15 28 -10 l27 7 -22 -22
c-24 -22 -31 -37 -13 -26 5 3 19 8 31 10 11 2 30 7 42 10 17 5 19 4 7 -4 -12
-9 -12 -11 2 -16 10 -4 22 -3 29 1 7 4 9 3 6 -3 -8 -12 27 -56 36 -46 4 3 2
12 -4 20 -23 27 3 12 49 -29 26 -24 38 -33 28 -20 l-19 22 34 -1 c19 -1 26 -3
17 -6 -25 -6 -8 -35 37 -63 34 -21 39 -48 8 -35 -13 4 -14 3 -3 -10 7 -8 19
-15 26 -15 8 0 14 -4 14 -10 0 -5 -5 -10 -11 -10 -8 0 -8 -5 1 -15 9 -11 10
-18 1 -29 -9 -11 -3 -17 34 -32 25 -11 45 -22 45 -26 0 -5 7 -8 15 -8 9 0 12
6 9 18 -5 13 -4 14 4 3 8 -11 13 -11 33 2 13 9 29 17 34 17 6 1 17 6 25 11 10
7 2 8 -25 4 -37 -4 -38 -4 -21 10 10 8 22 12 27 10 4 -3 11 0 14 6 5 7 15 3
31 -12 35 -33 41 -15 10 26 -25 32 -27 41 -21 86 5 33 3 54 -5 64 -8 10 -9 15
-2 15 6 0 16 -8 21 -17 14 -24 14 -10 0 21 -7 14 -15 23 -19 21 -10 -6 -21 40
-14 58 3 8 1 18 -5 22 -6 3 -11 18 -11 33 0 26 0 26 20 6 17 -16 18 -25 10
-54 -12 -42 -7 -48 13 -17 14 21 14 28 1 52 -17 32 -17 38 -4 30 6 -3 10 -2
10 3 0 6 -7 13 -16 16 -12 5 -13 10 -6 19 8 9 4 19 -14 36 -26 25 -32 61 -11
61 7 0 20 -15 29 -32 l16 -33 -3 52 c-2 45 0 52 15 50 10 -2 25 -9 34 -16 9
-8 19 -11 22 -8 3 3 -6 13 -21 24 -52 36 -86 66 -81 70 11 12 -113 135 -127
126 -6 -3 -7 -1 -3 5 4 7 4 12 -1 12 -4 0 -13 11 -20 25 -8 18 -8 25 0 25 6 0
-2 14 -19 31 -34 36 -144 91 -144 72 0 -3 8 -12 17 -19 10 -7 15 -15 11 -19
-3 -4 -16 3 -28 15 -12 12 -30 22 -41 23 -11 1 -17 7 -15 14 4 8 -3 13 -17 13
-13 0 -27 4 -32 9 -18 17 -188 36 -235 25z m265 -73 c21 -15 46 -26 55 -24 9
2 22 -3 29 -11 15 -17 4 -21 -18 -7 -8 5 -27 3 -48 -6 -19 -8 -32 -9 -28 -4 3
6 -1 11 -9 11 -9 0 -13 7 -11 20 3 14 -3 22 -21 26 -13 3 -24 10 -24 15 0 18
37 8 75 -20z m145 -31 c0 -5 -4 -10 -10 -10 -5 0 -10 5 -10 10 0 6 5 10 10 10
6 0 10 -4 10 -10z m-7 -47 c-3 -7 0 -13 6 -13 16 0 14 -27 -3 -33 -10 -4 -12
0 -9 14 3 11 -1 21 -11 25 -22 8 -20 23 3 21 11 0 17 -6 14 -14z m-863 -3 c0
-5 -5 -10 -11 -10 -5 0 -7 5 -4 10 3 6 8 10 11 10 2 0 4 -4 4 -10z m920 -33
c0 -5 -4 -5 -10 -2 -5 3 -10 14 -10 23 0 15 2 15 10 2 5 -8 10 -19 10 -23z
m-975 3 c3 -5 1 -10 -4 -10 -6 0 -11 5 -11 10 0 6 2 10 4 10 3 0 8 -4 11 -10z
m-25 -25 c0 -8 -9 -19 -20 -25 -11 -6 -20 -8 -20 -5 0 4 -7 -1 -16 -9 -22 -23
-40 -20 -20 3 10 11 28 21 40 23 11 2 20 9 19 16 -2 6 2 12 7 12 6 0 10 -7 10
-15z m1036 -26 c19 -22 19 -22 -3 -8 -13 8 -23 17 -23 21 0 12 6 9 26 -13z
m57 -49 c-4 -15 -8 -16 -18 -7 -15 15 -8 38 10 31 7 -3 11 -14 8 -24z m-952
-3 c-10 -9 -11 -8 -5 6 3 10 9 15 12 12 3 -3 0 -11 -7 -18z m864 5 c-3 -3 -11
0 -18 7 -9 10 -8 11 6 5 10 -3 15 -9 12 -12z m-235 -17 c22 27 156 -9 191 -51
21 -26 86 -64 109 -64 11 0 20 -5 20 -11 0 -11 -17 -9 -69 7 -21 6 -23 4 -16
-15 6 -21 5 -22 -15 -11 -23 12 -70 6 -70 -10 0 -5 20 -26 45 -46 24 -21 42
-41 39 -46 -3 -5 5 -17 18 -28 13 -11 19 -19 15 -20 -5 0 -15 7 -23 15 -11 11
-31 14 -69 11 -61 -4 -87 13 -83 55 4 31 18 41 37 26 12 -10 13 -8 9 16 -6 29
-1 33 56 51 17 6 15 10 -15 41 -21 21 -44 35 -59 35 -102 0 -128 6 -157 35
l-28 29 27 -17 c23 -14 28 -14 38 -2z m194 3 c-5 -7 -2 -9 8 -6 17 7 45 -7 32
-15 -14 -8 -56 12 -49 23 3 5 8 10 11 10 3 0 2 -5 -2 -12z m106 -23 c0 -28
-15 -34 -24 -9 -10 25 -7 34 9 34 9 0 15 -9 15 -25z m-900 11 c0 -2 -8 -10
-17 -17 -16 -13 -17 -12 -4 4 13 16 21 21 21 13z m966 -11 c12 -12 12 -15 2
-15 -9 -1 -7 -5 5 -14 20 -15 22 -27 5 -23 -7 1 -18 13 -25 26 -22 40 -15 54
13 26z m-1016 -13 c0 -13 -12 -22 -22 -16 -10 6 -1 24 13 24 5 0 9 -4 9 -8z
m556 -21 c-3 -5 -14 -11 -25 -14 -14 -3 -18 -1 -14 9 3 8 14 14 25 14 10 0 17
-4 14 -9z m-610 -25 c1 -1 4 -11 8 -23 6 -20 4 -21 -29 -13 -19 4 -35 6 -35 3
0 -2 -5 -1 -10 2 -7 4 -7 13 0 26 8 15 17 18 38 13 15 -4 28 -7 28 -8z m-116
-6 c0 -5 -5 -10 -11 -10 -5 0 -7 5 -4 10 3 6 8 10 11 10 2 0 4 -4 4 -10z m924
-14 c12 5 15 0 14 -20 -3 -32 -14 -33 -39 -3 -21 26 -25 45 -5 28 7 -6 21 -9
30 -5z m261 -38 c17 -32 22 -48 13 -40 -19 15 -59 92 -48 92 4 0 20 -24 35
-52z m-1281 25 c-10 -7 -22 -13 -27 -13 -5 0 -4 6 2 13 6 8 18 14 27 14 15 0
14 -2 -2 -14z m321 7 c-3 -5 -12 -10 -18 -10 -7 0 -6 4 3 10 19 12 23 12 15 0z
m635 -9 c0 -5 -9 -7 -20 -4 -11 3 -20 7 -20 9 0 2 9 4 20 4 11 0 20 -4 20 -9z
m-69 -14 c-7 -7 -14 -8 -21 -1 -6 6 -2 10 12 11 16 2 18 -1 9 -10z m-791 -6
c0 -5 -7 -12 -16 -15 -14 -5 -15 -4 -4 9 14 17 20 19 20 6z m180 -11 c0 -5 -9
-6 -20 -3 -11 3 -17 9 -15 14 7 10 35 1 35 -11z m-266 -89 c3 -5 16 -7 28 -3
14 3 19 1 14 -6 -4 -6 2 -20 13 -31 16 -16 28 -19 53 -14 29 6 31 4 21 -9 -8
-9 -24 -13 -40 -11 -16 2 -41 4 -58 6 -38 3 -57 18 -43 35 7 8 7 17 -2 27 -8
9 -9 15 -2 15 6 0 13 -4 16 -9z m70 -17 c3 -8 2 -12 -4 -9 -6 3 -10 10 -10 16
0 14 7 11 14 -7z m152 -51 c-10 -10 -19 5 -10 18 6 11 8 11 12 0 2 -7 1 -15
-2 -18z m-26 -63 c8 -5 12 -11 9 -14 -3 -3 -14 1 -25 9 -21 16 -8 20 16 5z
m811 -57 c13 -16 12 -17 -3 -4 -17 13 -22 21 -14 21 2 0 10 -8 17 -17z m302
-68 c0 -45 -3 -65 -11 -65 -4 0 -7 21 -7 48 0 26 -4 61 -8 77 -7 28 -7 28 9
-5 9 -19 17 -44 17 -55z m-177 -13 c-4 -3 -14 2 -24 12 -16 18 -16 18 6 6 13
-6 21 -14 18 -18z"/>
<path d="M1805 2420 c3 -5 8 -10 11 -10 2 0 4 5 4 10 0 6 -5 10 -11 10 -5 0
-7 -4 -4 -10z"/>
<path d="M1458 2318 c9 -9 15 -9 24 0 9 9 7 12 -12 12 -19 0 -21 -3 -12 -12z"/>
<path d="M2020 2259 c0 -5 4 -8 9 -4 5 3 38 -22 72 -55 34 -33 64 -59 66 -57
5 6 -126 127 -137 127 -6 0 -10 -5 -10 -11z"/>
<path d="M1710 2241 c0 -6 4 -13 10 -16 6 -3 7 1 4 9 -7 18 -14 21 -14 7z"/>
<path d="M2176 2165 c32 -38 60 -72 61 -74 2 -2 5 -2 8 1 3 3 -24 36 -61 74
l-66 69 58 -70z"/>
<path d="M1250 2190 c0 -24 15 -27 24 -4 9 22 8 24 -9 24 -8 0 -15 -9 -15 -20z"/>
<path d="M1455 2119 c-4 -6 -5 -13 -2 -16 7 -7 27 6 27 18 0 12 -17 12 -25 -2z"/>
<path d="M2170 2122 c0 -4 10 -13 23 -21 22 -14 22 -14 3 8 -20 22 -26 25 -26
13z"/>
<path d="M1435 2073 c11 -3 25 -9 30 -13 18 -13 67 -22 60 -10 -3 5 -16 10
-28 10 -14 0 -18 3 -10 8 7 4 -6 8 -30 9 -23 0 -33 -2 -22 -4z"/>
<path d="M1276 2061 c-4 -5 -2 -12 3 -15 5 -4 12 -2 15 3 4 5 2 12 -3 15 -5 4
-12 2 -15 -3z"/>
<path d="M1388 2063 c7 -3 16 -2 19 1 4 3 -2 6 -13 5 -11 0 -14 -3 -6 -6z"/>
<path d="M1340 2049 c0 -5 5 -7 10 -4 6 3 10 8 10 11 0 2 -4 4 -10 4 -5 0 -10
-5 -10 -11z"/>
<path d="M2240 2039 c0 -6 24 -19 35 -19 1 0 5 7 9 15 4 11 -1 14 -19 13 -14
-1 -25 -5 -25 -9z"/>
<path d="M1299 2013 c-13 -16 -12 -17 4 -4 9 7 17 15 17 17 0 8 -8 3 -21 -13z"/>
<path d="M2290 2010 c0 -5 5 -10 10 -10 6 0 10 5 10 10 0 6 -4 10 -10 10 -5 0
-10 -4 -10 -10z"/>
<path d="M1395 2001 c-10 -17 9 -20 30 -5 18 14 18 14 -2 14 -12 0 -24 -4 -28
-9z"/>
<path d="M1385 1930 c-8 -13 15 -24 27 -12 6 6 4 11 -6 15 -8 3 -18 2 -21 -3z"/>
<path d="M2186 1922 c-8 -13 3 -42 26 -66 17 -19 17 -18 9 12 -13 44 -27 66
-35 54z"/>
<path d="M1434 1895 c3 -9 6 -19 6 -21 0 -2 7 -4 15 -4 21 0 19 13 -6 29 -19
11 -21 11 -15 -4z"/>
<path d="M1190 1869 c0 -5 5 -7 10 -4 6 3 10 8 10 11 0 2 -4 4 -10 4 -5 0 -10
-5 -10 -11z"/>
<path d="M610 1860 c0 -5 5 -10 11 -10 5 0 7 5 4 10 -3 6 -8 10 -11 10 -2 0
-4 -4 -4 -10z"/>
<path d="M2317 1863 c-11 -10 -8 -33 4 -33 7 0 18 -8 26 -17 12 -16 13 -15 1
7 -7 14 -12 28 -13 32 0 11 -11 18 -18 11z"/>
<path d="M734 1834 c3 -9 6 -22 6 -30 0 -8 6 -11 15 -8 17 7 21 -11 4 -21 -7
-5 -5 -13 6 -25 8 -9 18 -34 20 -55 6 -41 11 -52 21 -42 4 4 1 13 -6 22 -7 8
-8 15 -3 15 16 0 32 -46 26 -71 -4 -15 -3 -20 5 -15 7 4 12 1 12 -8 0 -21 41
-62 57 -58 7 2 13 -1 13 -6 0 -9 19 -18 57 -27 7 -2 25 -10 42 -18 29 -14 29
-14 22 6 -5 12 -17 24 -27 27 -11 3 -19 14 -20 28 -1 26 2 26 36 7 14 -8 38
-14 53 -15 19 0 27 -4 24 -12 -7 -19 11 -48 30 -48 15 0 15 2 -1 19 -16 17
-15 19 6 33 23 15 23 16 4 37 -15 16 -17 24 -8 33 9 9 12 9 12 -1 0 -7 7 -19
15 -27 13 -14 15 -13 15 5 0 11 -9 25 -21 31 -11 7 -27 26 -34 43 l-14 32 0
-40 c1 -85 -2 -94 -25 -85 -25 9 -30 10 -55 10 -10 0 -35 11 -55 25 -20 13
-36 22 -36 20 0 -2 -16 7 -36 20 -20 14 -43 25 -50 25 -18 0 -60 77 -67 122
-6 38 8 62 19 34 3 -9 13 -16 22 -16 8 0 25 -8 36 -17 16 -14 15 -11 -3 9 -13
15 -27 26 -32 25 -4 -1 -15 7 -23 18 -16 20 -16 20 -31 1 -13 -17 -15 -18 -15
-3 0 9 -5 17 -11 17 -6 0 -8 -7 -5 -16z m152 -235 c3 -6 20 -17 38 -25 17 -7
25 -13 19 -14 -7 0 -13 -5 -13 -11 0 -6 7 -9 15 -6 16 7 30 -8 16 -17 -5 -3
-20 4 -35 15 -14 11 -30 18 -35 15 -5 -4 -12 3 -16 14 -4 11 -11 18 -16 15 -5
-3 -6 1 -3 9 7 19 20 21 30 5z"/>
<path d="M701 1785 c-1 -26 2 -45 9 -45 10 0 15 15 10 35 -1 6 -2 20 -2 33 -1
41 -14 22 -17 -23z"/>
<path d="M1477 1811 c-3 -12 4 -28 18 -41 13 -12 24 -30 24 -39 -1 -30 19
-116 21 -96 1 11 2 26 1 33 -1 6 3 12 9 12 7 0 7 6 -1 21 -9 17 -8 20 3 17 7
-3 14 -13 16 -24 2 -10 14 -28 27 -39 26 -22 49 -95 26 -81 -9 6 -9 2 1 -13
20 -33 25 -26 25 40 0 54 -3 62 -26 77 -25 16 -66 61 -66 72 0 9 -57 80 -65
80 -4 0 -10 -9 -13 -19z"/>
<path d="M585 1763 c-4 -27 -11 -51 -16 -54 -6 -3 -12 -37 -15 -75 -2 -38 -6
-83 -9 -101 -3 -18 0 -44 5 -58 9 -22 13 -24 31 -15 19 11 20 10 14 -10 -17
-52 -8 -91 29 -129 20 -20 36 -42 36 -49 0 -7 6 -12 13 -12 9 0 14 -12 14 -30
0 -37 19 -62 32 -41 6 9 11 10 15 2 9 -13 -1 -31 -17 -31 -6 0 -23 12 -39 27
-31 29 -50 24 -29 -8 7 -12 10 -23 8 -26 -9 -9 -28 37 -23 55 8 24 -10 94 -27
107 -8 5 -21 24 -30 40 l-16 30 0 -30 c-1 -41 9 -76 20 -69 5 3 6 -2 3 -11 -4
-8 1 -37 9 -63 8 -26 18 -62 22 -79 4 -18 10 -33 15 -33 4 0 6 10 2 22 l-5 21
22 -22 c12 -12 20 -25 17 -29 -2 -4 13 -33 35 -65 22 -31 35 -57 31 -57 -5 0
-22 18 -37 40 -15 22 -30 38 -33 36 -7 -7 80 -133 101 -146 15 -9 22 -9 31 1
7 8 7 10 0 6 -6 -4 -20 0 -30 8 -16 13 -17 16 -4 25 11 7 11 10 2 10 -7 0 -10
5 -7 10 12 20 32 9 49 -27 10 -22 13 -38 7 -42 -20 -13 -16 -33 8 -37 21 -4
22 -2 10 12 -13 16 -12 16 9 3 12 -8 22 -19 22 -26 0 -7 6 -10 14 -7 8 3 17 0
22 -7 5 -8 3 -10 -6 -4 -9 5 -11 4 -6 -4 4 -6 12 -9 17 -6 5 4 24 -4 42 -16
l32 -22 -29 31 c-17 18 -25 32 -18 32 6 0 14 -5 17 -10 8 -14 35 -13 35 1 0 6
-11 24 -25 41 -33 39 -32 49 4 37 37 -13 57 -34 41 -44 -15 -9 15 -30 56 -39
29 -7 110 -76 88 -76 -6 0 -19 9 -29 20 -10 11 -21 18 -23 15 -10 -10 42 -55
64 -55 12 0 27 -6 33 -14 7 -8 26 -18 42 -21 16 -4 31 -11 34 -16 8 -11 25
-12 25 0 0 4 -17 15 -37 24 l-38 15 35 -5 c19 -3 43 -12 52 -21 11 -9 28 -13
47 -9 19 4 31 2 35 -6 3 -9 5 -8 5 1 1 7 6 10 11 7 6 -4 18 -1 26 6 11 9 20 9
40 0 35 -16 54 -14 61 7 3 9 14 24 22 33 14 13 19 14 29 2 15 -15 8 -33 -13
-33 -7 0 -15 -7 -19 -15 -6 -17 5 -20 20 -5 6 6 32 13 60 15 27 3 58 6 69 8
11 1 21 8 21 15 1 6 2 17 3 23 0 5 5 8 11 4 5 -3 7 -12 3 -20 -3 -8 0 -15 6
-15 6 0 11 3 12 8 0 4 2 15 4 25 2 11 -3 17 -16 17 -29 0 -14 16 21 23 18 4
30 13 30 22 0 17 -17 20 -22 4 -2 -6 -16 -11 -31 -11 -15 0 -27 -5 -27 -10 0
-5 -16 -7 -35 -4 -20 4 -35 2 -35 -4 0 -6 -15 -10 -32 -10 l-33 1 35 20 c19
11 26 18 15 15 -11 -3 -54 -7 -95 -10 -63 -4 -69 -4 -35 5 22 5 48 11 57 12
31 5 32 17 1 17 -16 0 -33 -3 -37 -7 -7 -8 -165 -8 -172 0 -3 2 20 8 50 11 42
6 55 12 59 27 6 22 -8 26 -16 5 -4 -10 -20 -15 -45 -14 -21 0 -50 -2 -63 -6
-13 -3 -18 -3 -11 0 29 13 10 26 -30 20 -36 -6 -40 -5 -28 9 11 13 7 15 -31
15 -29 0 -39 3 -30 9 8 5 9 11 3 15 -6 3 -14 2 -17 -4 -5 -8 -12 -7 -22 2 -9
7 -19 12 -22 11 -15 -7 -37 9 -38 27 -1 12 2 18 9 14 6 -4 24 -7 40 -6 17 0
26 -3 22 -9 -3 -6 -17 -8 -30 -5 -14 4 -24 2 -24 -4 0 -5 16 -10 35 -10 26 0
35 4 35 17 0 13 3 14 12 5 7 -7 27 -12 45 -12 26 0 31 -3 27 -17 -4 -13 0 -11
12 5 18 24 36 30 28 8 -4 -10 6 -15 33 -18 43 -6 56 -2 47 14 -4 6 -10 5 -15
-3 -5 -8 -9 -9 -9 -3 0 6 3 13 6 17 10 9 34 -4 34 -19 0 -8 5 -14 10 -14 6 0
10 7 10 15 0 8 7 15 16 15 10 0 14 -6 10 -15 -3 -8 -1 -15 4 -15 6 0 10 5 10
10 0 17 43 29 64 18 13 -7 21 -6 28 3 7 11 11 11 15 2 2 -7 9 -13 14 -13 6 0
8 4 4 9 -6 11 58 26 72 18 5 -3 31 -2 59 2 40 7 45 10 27 16 -13 4 -20 11 -18
16 3 4 12 6 19 3 8 -3 17 -1 21 5 13 22 -35 10 -60 -14 -19 -19 -29 -24 -42
-17 -14 9 -14 10 5 16 12 4 22 12 22 17 0 12 -10 11 -40 -6 -14 -8 -34 -14
-45 -14 -16 0 -15 3 8 15 40 22 25 30 -17 10 -37 -17 -66 -21 -66 -7 0 4 -23
6 -52 3 -45 -4 -50 -3 -45 12 5 13 0 16 -28 16 -18 0 -37 -5 -40 -10 -4 -7 2
-9 18 -5 14 4 28 2 31 -4 7 -10 -44 -13 -77 -4 -17 4 -17 6 -2 17 13 10 9 11
-24 8 -21 -2 -48 1 -58 7 -16 9 -14 10 12 11 19 0 26 3 19 10 -11 11 -74 3
-74 -9 0 -4 -18 -5 -40 -2 -49 7 -53 26 -6 26 52 0 54 12 3 16 -25 2 -43 1
-41 -2 5 -9 -35 -19 -52 -12 -8 3 -11 9 -8 14 3 5 -12 9 -33 10 -21 0 -31 3
-23 6 8 3 18 10 21 15 4 6 20 3 39 -7 17 -9 34 -14 37 -12 2 3 -5 8 -16 12
-12 3 -21 11 -21 16 0 5 -9 9 -19 9 -11 0 -23 5 -26 10 -3 6 3 10 15 10 12 0
19 4 16 9 -3 4 -24 7 -46 5 -25 -2 -39 0 -35 6 3 6 -6 15 -20 20 -14 5 -23 15
-20 20 4 7 -3 8 -21 4 -16 -4 -33 -7 -39 -6 -5 1 -24 3 -42 4 -17 2 -35 7 -40
11 -4 5 1 5 11 1 14 -5 17 -4 12 4 -4 7 -2 12 6 12 7 1 0 12 -17 25 -16 13
-32 20 -35 15 -4 -6 -24 2 -47 17 -35 23 -39 28 -27 40 18 19 18 24 -1 17 -9
-4 -24 3 -35 16 -24 27 -26 38 -5 20 12 -10 15 -10 15 4 0 9 -6 16 -13 16 -8
0 -22 9 -32 20 -10 11 -13 20 -7 20 6 0 14 -4 17 -10 3 -5 10 -10 15 -10 6 0
2 9 -7 19 -9 11 -20 18 -23 16 -4 -2 -12 7 -18 20 -9 19 -9 25 0 25 6 0 3 10
-8 22 -17 19 -17 21 -2 15 10 -3 20 -2 23 3 4 6 2 10 -3 10 -6 0 -9 13 -8 30
1 16 -3 31 -8 33 -7 3 -7 9 2 19 10 12 10 17 -1 27 -8 6 -17 8 -20 4 -4 -3 -7
1 -7 11 0 10 5 14 11 10 7 -4 9 0 5 12 -3 11 -1 36 3 57 5 20 5 37 1 37 -4 0
-11 -21 -15 -47z m228 -492 c4 0 7 -5 7 -10 0 -13 -48 -10 -59 3 -9 11 14 14
52 7z m-28 -61 c4 -6 1 -10 -5 -10 -6 0 -8 -5 -4 -12 4 -7 3 -8 -4 -4 -7 4
-12 14 -12 22 0 9 -8 14 -17 13 -10 -1 -26 1 -36 6 -17 7 -17 8 0 20 15 11 22
10 45 -6 15 -11 30 -24 33 -29z m173 -27 c15 -21 15 -33 1 -33 -6 0 -13 9 -16
20 -5 21 -23 28 -23 10 0 -13 -50 -2 -68 15 -10 9 -2 11 40 9 36 -3 57 -9 66
-21z m-248 -43 c0 -5 -7 -7 -15 -4 -8 4 -12 10 -9 15 6 11 24 2 24 -11z m225
10 c3 -5 2 -10 -4 -10 -5 0 -13 5 -16 10 -3 6 -2 10 4 10 5 0 13 -4 16 -10z
m87 -18 c-19 -6 -44 6 -37 18 4 7 14 6 28 -2 14 -7 17 -13 9 -16z m-42 -8 c0
-2 -7 -4 -15 -4 -8 0 -15 4 -15 10 0 5 7 7 15 4 8 -4 15 -8 15 -10z m-203 -2
c6 -4 15 -20 18 -35 4 -15 11 -30 16 -33 16 -10 9 -23 -8 -17 -10 4 -20 9 -23
13 -3 3 -18 14 -33 24 -16 9 -26 20 -23 24 4 3 12 0 18 -6 7 -7 16 -12 21 -12
4 0 -5 11 -20 25 l-28 24 25 1 c14 0 30 -4 37 -8z m47 -148 c54 -45 61 -64 11
-30 -47 32 -88 83 -79 98 5 8 10 5 15 -9 4 -12 28 -38 53 -59z m441 -15 c5 -5
1 -9 -12 -9 -11 0 -26 7 -33 15 -7 8 -19 15 -26 15 -8 0 -14 5 -14 10 0 11 68
-14 85 -31z m95 -19 c0 -5 -7 -10 -15 -10 -8 0 -15 5 -15 10 0 6 7 10 15 10 8
0 15 -4 15 -10z m334 -208 c2 -4 -11 -12 -30 -18 -33 -11 -34 -11 -18 7 18 20
39 25 48 11z"/>
<path d="M2252 1774 c3 -17 21 -21 26 -6 1 5 -4 12 -13 16 -11 4 -15 1 -13
-10z"/>
<path d="M1347 1707 c-15 -25 -27 -50 -27 -56 0 -6 -15 -21 -32 -32 l-33 -21
29 7 c32 7 55 30 56 55 0 9 9 16 20 16 11 0 20 -7 20 -16 0 -29 -12 -60 -24
-60 -15 0 -37 -35 -56 -90 -9 -25 -22 -46 -28 -46 -7 -1 -16 -2 -21 -3 -14 -2
-21 -44 -9 -58 6 -7 19 -13 29 -13 11 0 19 -4 19 -9 0 -10 70 -3 82 8 4 4 -9
5 -30 3 -25 -2 -45 4 -62 17 l-25 20 34 14 c19 8 28 16 21 19 -11 3 -11 12 2
44 9 21 21 38 26 37 5 -1 15 9 22 22 14 27 35 33 43 13 3 -7 5 -4 6 7 0 11 3
44 6 73 5 43 3 52 -10 52 -9 0 -19 10 -24 21 -7 20 -10 18 -34 -24z"/>
<path d="M750 1709 c0 -5 5 -7 10 -4 6 3 10 8 10 11 0 2 -4 4 -10 4 -5 0 -10
-5 -10 -11z"/>
<path d="M2223 1712 c-28 -4 -29 -14 -3 -37 15 -13 17 -21 9 -31 -6 -7 -7 -19
-3 -25 5 -9 10 -5 16 11 5 14 4 28 -3 36 -9 11 -8 14 5 14 9 0 16 3 16 8 -1
17 -16 27 -37 24z"/>
<path d="M2266 1711 c-3 -5 1 -11 9 -15 8 -3 15 -1 15 4 0 13 -18 22 -24 11z"/>
<path d="M2305 1710 c3 -5 8 -10 11 -10 2 0 4 5 4 10 0 6 -5 10 -11 10 -5 0
-7 -4 -4 -10z"/>
<path d="M2336 1695 c-3 -8 -1 -15 3 -15 5 0 11 7 15 15 3 8 1 15 -3 15 -5 0
-11 -7 -15 -15z"/>
<path d="M1647 1689 c7 -7 15 -10 18 -7 3 3 -2 9 -12 12 -14 6 -15 5 -6 -5z"/>
<path d="M1237 1631 c-38 -25 -41 -29 -20 -27 15 1 53 31 53 43 0 4 -2 4 -33
-16z"/>
<path d="M1666 1624 c-4 -9 -4 -19 -1 -22 7 -8 35 19 29 29 -8 14 -21 11 -28
-7z"/>
<path d="M644 1609 c0 -13 3 -15 13 -7 7 6 13 12 13 13 0 2 -6 5 -13 8 -7 3
-13 -3 -13 -14z"/>
<path d="M1537 1592 c3 -12 9 -25 14 -28 14 -8 11 10 -6 32 -13 18 -14 18 -8
-4z"/>
<path d="M2225 1591 c-3 -5 -1 -12 5 -16 5 -3 10 1 10 9 0 18 -6 21 -15 7z"/>
<path d="M2374 1543 c-11 -44 -22 -53 -51 -42 -14 5 -28 7 -31 4 -3 -3 0 -5 5
-5 6 0 2 -19 -10 -42 -20 -41 -32 -86 -18 -72 6 5 7 9 10 37 1 8 4 8 12 -3 8
-12 9 -10 4 8 -4 13 -2 22 4 22 6 0 11 9 11 20 0 11 4 20 9 20 5 0 7 -33 6
-72 -3 -57 0 -77 13 -91 15 -17 15 -23 -2 -80 -10 -34 -20 -78 -21 -98 -2 -19
-5 -39 -6 -45 -4 -15 13 -44 22 -38 5 3 9 0 9 -5 0 -6 -4 -11 -9 -11 -8 0 -17
-20 -26 -57 -6 -25 5 -13 25 28 16 30 18 44 10 53 -7 10 -6 17 5 26 13 11 14
10 9 -5 -5 -12 -4 -16 4 -12 6 4 18 31 27 60 10 28 23 61 30 72 7 11 15 44 19
74 3 29 11 72 16 96 5 23 9 59 8 79 l-1 38 -16 -26 c-9 -14 -21 -26 -28 -26
-7 0 -18 -10 -24 -22 -7 -13 -18 -28 -25 -35 -7 -7 -10 -22 -7 -33 3 -11 1
-20 -5 -20 -18 0 -10 103 12 145 19 37 31 85 21 85 -3 0 -8 -12 -11 -27z m49
-153 c-3 -11 -9 -23 -14 -26 -5 -3 -4 -14 2 -25 7 -15 7 -35 -1 -71 -11 -55
-51 -130 -58 -109 -2 6 4 24 14 39 10 15 19 34 20 42 2 8 7 32 12 53 9 34 8
40 -8 39 -3 0 -6 8 -6 19 0 10 6 19 13 19 7 0 12 3 12 8 -3 17 2 32 10 32 5 0
7 -9 4 -20z"/>
<path d="M629 1536 c9 -11 9 -15 0 -18 -7 -2 -5 -9 7 -18 16 -14 17 -13 11 3
-3 9 -2 17 3 17 5 0 7 7 4 15 -4 8 -13 15 -21 15 -12 0 -13 -3 -4 -14z"/>
<path d="M1541 1523 c0 -17 3 -34 9 -38 5 -3 6 -13 3 -22 -6 -15 -5 -16 9 -3
13 13 14 18 3 30 -7 8 -15 26 -18 40 -4 21 -4 20 -6 -7z"/>
<path d="M2440 1530 c0 -5 5 -10 11 -10 5 0 7 5 4 10 -3 6 -8 10 -11 10 -2 0
-4 -4 -4 -10z"/>
<path d="M1630 1523 c0 -15 78 -113 89 -113 5 0 18 -3 28 -7 16 -6 16 -5 4 11
-8 9 -20 15 -27 12 -7 -3 -12 2 -11 12 1 19 -41 82 -55 82 -5 0 -6 -6 -3 -12
4 -7 -1 -4 -9 6 -9 11 -16 15 -16 9z"/>
<path d="M1820 1520 c8 -5 22 -9 30 -9 10 0 8 3 -5 9 -27 12 -43 12 -25 0z"/>
<path d="M1130 1510 c0 -5 5 -10 10 -10 6 0 10 5 10 10 0 6 -4 10 -10 10 -5 0
-10 -4 -10 -10z"/>
<path d="M1878 1508 c5 -5 16 -8 23 -6 8 3 3 7 -10 11 -17 4 -21 3 -13 -5z"/>
<path d="M2226 1493 c-6 -14 -5 -15 5 -6 7 7 10 15 7 18 -3 3 -9 -2 -12 -12z"/>
<path d="M1065 1490 c3 -5 11 -10 16 -10 6 0 7 5 4 10 -3 6 -11 10 -16 10 -6
0 -7 -4 -4 -10z"/>
<path d="M1795 1491 c3 -2 22 -24 42 -48 20 -24 42 -43 49 -43 19 0 24 -26 8
-47 -13 -17 -15 -17 -28 0 -7 9 -17 17 -22 17 -5 0 -15 9 -21 19 -10 15 -10
21 0 24 17 6 7 14 -30 22 -30 6 -32 5 -27 -19 3 -16 0 -26 -7 -26 -7 0 -5 -8
6 -20 10 -11 25 -20 34 -19 11 0 9 4 -6 11 -28 14 -30 28 -3 28 11 0 20 -4 20
-9 0 -5 23 -26 50 -46 28 -20 50 -42 50 -50 0 -7 -9 -25 -21 -41 -12 -17 -6
-13 15 10 l35 38 -22 19 c-18 14 -20 21 -11 36 7 10 19 17 28 17 9 -1 13 2 10
7 -3 5 -11 9 -17 9 -7 0 -18 9 -25 20 -7 12 -17 18 -22 15 -11 -7 -35 35 -32
56 2 12 -6 18 -27 21 -17 3 -29 2 -26 -1z"/>
<path d="M660 1481 c0 -6 4 -13 10 -16 6 -3 7 1 4 9 -7 18 -14 21 -14 7z"/>
<path d="M1770 1470 c0 -5 5 -10 10 -10 6 0 10 5 10 10 0 6 -4 10 -10 10 -5 0
-10 -4 -10 -10z"/>
<path d="M2255 1472 c-11 -1 -31 -11 -45 -22 -21 -16 -23 -21 -12 -32 11 -11
12 -10 7 5 -4 10 -2 17 4 17 6 0 11 -4 11 -10 0 -5 5 -10 10 -10 6 0 9 6 8 13
-2 7 5 11 15 9 9 -2 20 4 23 13 8 19 5 22 -21 17z"/>
<path d="M1399 1438 c-21 -31 -21 -32 -2 -15 16 14 22 15 26 5 3 -7 6 -1 6 15
1 35 -3 34 -30 -5z"/>
<path d="M2097 1452 c-10 -11 -13 -22 -8 -28 5 -5 12 -20 14 -34 4 -17 5 -14
4 10 -1 19 3 41 7 48 13 21 1 24 -17 4z"/>
<path d="M1160 1450 c0 -5 5 -10 11 -10 5 0 7 5 4 10 -3 6 -8 10 -11 10 -2 0
-4 -4 -4 -10z"/>
<path d="M551 1424 c0 -11 3 -14 6 -6 3 7 2 16 -1 19 -3 4 -6 -2 -5 -13z"/>
<path d="M1621 1421 c8 -13 28 -37 44 -52 25 -24 28 -30 15 -39 -12 -8 -11
-10 8 -10 12 0 22 3 22 8 -1 4 -24 32 -52 62 -28 30 -44 44 -37 31z"/>
<path d="M695 1420 c3 -5 8 -10 11 -10 2 0 4 5 4 10 0 6 -5 10 -11 10 -5 0 -7
-4 -4 -10z"/>
<path d="M1382 1358 c-32 -56 -28 -69 18 -66 23 1 24 1 3 5 -24 4 -30 22 -14
39 9 10 32 74 26 74 -1 0 -16 -24 -33 -52z"/>
<path d="M690 1390 c0 -5 5 -10 11 -10 5 0 7 5 4 10 -3 6 -8 10 -11 10 -2 0
-4 -4 -4 -10z"/>
<path d="M2148 1373 c-10 -11 -18 -30 -18 -42 0 -16 -9 -26 -30 -34 -33 -12
-39 -31 -14 -41 8 -3 12 -2 9 4 -8 13 30 31 49 24 19 -7 20 -16 4 -33 -11 -11
-9 -11 9 0 18 11 26 11 47 -1 30 -16 31 -15 40 25 5 22 4 26 -4 15 -8 -12 -10
-11 -10 7 0 12 -5 25 -10 28 -16 10 -24 -23 -10 -40 10 -13 8 -15 -14 -15 -26
0 -35 13 -16 25 7 5 8 11 1 18 -5 7 -11 27 -13 46 -3 33 -3 33 -20 14z"/>
<path d="M730 1372 c0 -6 6 -13 13 -15 9 -4 9 -8 -3 -16 -8 -5 -19 -7 -25 -4
-5 3 -5 0 2 -7 6 -7 24 -13 40 -14 33 -1 93 -41 93 -61 0 -18 72 -33 78 -16 2
6 8 9 13 5 5 -3 9 -1 9 5 0 5 -8 10 -17 10 -44 0 -74 10 -111 40 -26 20 -46
29 -57 25 -14 -6 -16 -3 -11 13 4 12 1 25 -9 33 -9 7 -15 8 -15 2z"/>
<path d="M2181 1364 c0 -11 3 -14 6 -6 3 7 2 16 -1 19 -3 4 -6 -2 -5 -13z"/>
<path d="M1803 1343 c-19 -7 -16 -23 5 -23 9 0 28 -12 41 -25 24 -26 41 -32
41 -15 0 6 -5 10 -10 10 -6 0 -23 13 -38 29 -15 16 -33 27 -39 24z"/>
<path d="M1951 1334 c0 -11 3 -14 6 -6 3 7 2 16 -1 19 -3 4 -6 -2 -5 -13z"/>
<path d="M1518 1323 c12 -2 30 -2 40 0 9 3 -1 5 -23 4 -22 0 -30 -2 -17 -4z"/>
<path d="M860 1301 c0 -5 7 -12 16 -15 14 -5 15 -4 4 9 -14 17 -20 19 -20 6z"/>
<path d="M2327 1303 c-4 -3 -7 -13 -7 -22 1 -13 3 -13 11 2 11 19 8 33 -4 20z"/>
<path d="M1524 1285 c-3 -8 -3 -18 0 -23 6 -10 83 -9 93 2 7 7 -10 9 -44 6
-15 -1 -23 4 -23 14 0 20 -19 21 -26 1z"/>
<path d="M2270 1261 c-12 -24 -13 -34 -1 -27 9 6 22 46 15 46 -2 0 -8 -9 -14
-19z"/>
<path d="M2043 1253 c-3 -10 -8 -21 -10 -25 -1 -3 7 -4 19 0 12 3 17 7 11 9
-7 3 -9 11 -6 19 3 8 2 14 -1 14 -4 0 -9 -8 -13 -17z"/>
<path d="M2295 1225 c-10 -19 -23 -35 -29 -35 -12 0 -40 -39 -33 -46 2 -2 20
8 39 23 23 18 38 39 41 58 6 40 4 40 -18 0z"/>
<path d="M1520 1225 c-10 -12 -10 -19 -2 -27 9 -9 12 -9 12 1 0 9 9 12 25 9
29 -6 32 0 8 18 -23 17 -28 17 -43 -1z"/>
<path d="M1415 1210 c-3 -5 1 -10 9 -10 9 0 16 5 16 10 0 6 -4 10 -9 10 -6 0
-13 -4 -16 -10z"/>
<path d="M1540 1182 c0 -18 40 -36 53 -23 8 8 8 14 -2 24 -10 10 -11 9 -6 -5
9 -23 -3 -23 -27 -1 -10 9 -18 11 -18 5z"/>
<path d="M1833 1183 c-19 -7 -16 -30 5 -42 15 -9 15 -11 -8 -20 -14 -5 -19
-10 -11 -10 10 -1 11 -4 2 -15 -12 -15 4 -26 37 -26 16 1 16 1 0 11 -14 8 -15
14 -6 34 6 13 7 32 3 42 -5 10 -7 21 -7 26 1 4 1 7 0 6 -2 0 -9 -3 -15 -6z"/>
<path d="M1298 1143 c7 -3 16 -2 19 1 4 3 -2 6 -13 5 -11 0 -14 -3 -6 -6z"/>
<path d="M1755 1130 c-3 -5 1 -10 10 -10 9 0 13 5 10 10 -3 6 -8 10 -10 10 -2
0 -7 -4 -10 -10z"/>
<path d="M1715 1120 c3 -5 8 -10 11 -10 2 0 4 5 4 10 0 6 -5 10 -11 10 -5 0
-7 -4 -4 -10z"/>
<path d="M2185 1079 c-22 -16 -48 -36 -58 -44 -9 -8 -22 -15 -27 -15 -6 0 -10
-5 -10 -11 0 -6 14 -2 31 9 29 18 35 19 67 5 32 -13 35 -13 49 6 10 15 21 19
38 15 26 -7 38 5 24 26 -7 13 -9 13 -9 1 0 -11 -4 -9 -14 5 -14 19 -31 14 -31
-9 -1 -7 -6 -11 -13 -9 -7 1 -12 -5 -12 -13 0 -22 -26 -7 -27 16 -1 14 3 19
12 16 7 -3 15 3 18 14 3 10 4 19 4 19 -1 0 -20 -14 -42 -31z m5 -23 c0 -3 -4
-8 -10 -11 -5 -3 -10 -1 -10 4 0 6 5 11 10 11 6 0 10 -2 10 -4z"/>
<path d="M1700 1089 c0 -5 5 -7 10 -4 6 3 10 8 10 11 0 2 -4 4 -10 4 -5 0 -10
-5 -10 -11z"/>
<path d="M1620 1080 c0 -5 4 -10 9 -10 6 0 13 5 16 10 3 6 -1 10 -9 10 -9 0
-16 -4 -16 -10z"/>
<path d="M1900 1075 c-7 -9 -11 -17 -9 -20 3 -2 10 5 17 15 14 24 10 26 -8 5z"/>
<path d="M1480 1059 c0 -5 9 -9 20 -9 11 0 20 2 20 4 0 2 -9 6 -20 9 -11 3
-20 1 -20 -4z"/>
<path d="M1555 1060 c-24 -5 -27 -8 -13 -14 22 -10 50 -4 56 12 4 13 2 13 -43
2z"/>
<path d="M1623 1053 c-13 -2 -23 -8 -23 -13 0 -5 -10 -10 -22 -12 -12 -2 -23
-9 -26 -16 -3 -9 8 -7 36 7 22 11 42 18 44 15 3 -2 11 2 18 11 7 8 9 14 4 14
-5 -1 -19 -4 -31 -6z"/>
<path d="M1490 1031 c-8 -6 -18 -7 -22 -5 -4 3 -8 0 -8 -5 0 -15 20 -13 50 4
15 8 19 14 10 14 -8 1 -22 -3 -30 -8z"/>
<path d="M1660 1030 c0 -6 11 -8 28 -4 39 10 40 14 4 14 -18 0 -32 -5 -32 -10z"/>
<path d="M1809 1022 c-9 -9 -19 -26 -23 -38 -5 -18 -2 -21 23 -21 28 0 33 10
18 34 -4 6 -4 18 -1 27 8 20 3 19 -17 -2z"/>
<path d="M1880 1035 c0 -5 5 -17 10 -25 5 -8 10 -10 10 -5 0 6 -5 17 -10 25
-5 8 -10 11 -10 5z"/>
<path d="M2150 1020 c0 -13 18 -22 24 -11 3 5 -1 11 -9 15 -8 3 -15 1 -15 -4z"/>
<path d="M1873 973 c-7 -2 -13 -9 -13 -15 0 -7 5 -7 13 1 8 6 16 8 20 5 3 -3
14 -1 24 5 16 9 15 10 -7 10 -14 0 -31 -3 -37 -6z"/>
<path d="M2197 969 c7 -7 15 -10 18 -7 3 3 -2 9 -12 12 -14 6 -15 5 -6 -5z"/>
<path d="M2280 951 c0 -5 9 -7 20 -4 11 3 20 7 20 9 0 2 -9 4 -20 4 -11 0 -20
-4 -20 -9z"/>
<path d="M1620 940 c0 -5 5 -10 10 -10 6 0 10 5 10 10 0 6 -4 10 -10 10 -5 0
-10 -4 -10 -10z"/>
<path d="M1505 929 c-4 -6 -5 -12 -2 -15 2 -3 7 2 10 11 7 17 1 20 -8 4z"/>
<path d="M2230 922 c-14 -9 -26 -20 -28 -24 -7 -14 -22 -8 -22 8 0 13 -3 14
-14 4 -8 -6 -12 -18 -9 -27 4 -10 2 -14 -7 -11 -14 4 -110 -84 -110 -102 0 -6
5 -8 12 -4 8 5 9 2 4 -11 -5 -15 -4 -16 9 -5 10 8 12 17 6 24 -7 8 -3 16 12
26 12 8 26 13 30 12 5 -1 6 2 3 7 -7 10 26 35 87 66 38 20 78 55 61 54 -5 0
-20 -8 -34 -17z"/>
<path d="M1920 898 c-19 -16 -27 -26 -17 -22 11 4 17 1 17 -9 0 -9 4 -18 9
-21 10 -7 9 26 -1 34 -4 3 2 11 13 19 12 7 18 8 14 2 -3 -6 -2 -11 3 -11 6 0
12 6 15 14 11 27 -18 24 -53 -6z"/>
<path d="M1238 913 c7 -3 16 -2 19 1 4 3 -2 6 -13 5 -11 0 -14 -3 -6 -6z"/>
<path d="M1290 890 c0 -5 5 -10 11 -10 5 0 7 5 4 10 -3 6 -8 10 -11 10 -2 0
-4 -4 -4 -10z"/>
<path d="M1810 890 c-8 -5 -12 -11 -9 -14 3 -3 14 1 25 9 21 16 8 20 -16 5z"/>
<path d="M1390 880 c0 -5 5 -10 10 -10 6 0 10 5 10 10 0 6 -4 10 -10 10 -5 0
-10 -4 -10 -10z"/>
<path d="M1350 870 c0 -5 5 -10 10 -10 6 0 10 5 10 10 0 6 -4 10 -10 10 -5 0
-10 -4 -10 -10z"/>
<path d="M1500 850 c0 -5 5 -10 10 -10 6 0 10 5 10 10 0 6 -4 10 -10 10 -5 0
-10 -4 -10 -10z"/>
<path d="M1540 850 c0 -5 5 -10 10 -10 6 0 10 5 10 10 0 6 -4 10 -10 10 -5 0
-10 -4 -10 -10z"/>
<path d="M1460 839 c0 -5 5 -7 10 -4 6 3 10 8 10 11 0 2 -4 4 -10 4 -5 0 -10
-5 -10 -11z"/>
<path d="M1850 831 c-8 -6 -17 -8 -21 -5 -4 2 -10 0 -14 -6 -10 -16 31 -12 45
5 14 17 11 19 -10 6z"/>
<path d="M2140 801 c-13 -11 -28 -17 -32 -15 -4 3 -15 -10 -24 -28 l-17 -32
52 43 c44 37 58 52 49 51 -2 0 -14 -9 -28 -19z"/>
<path d="M1685 800 c3 -5 8 -10 11 -10 2 0 4 5 4 10 0 6 -5 10 -11 10 -5 0 -7
-4 -4 -10z"/>
<path d="M1000 776 c0 -2 7 -7 16 -10 8 -3 12 -2 9 4 -6 10 -25 14 -25 6z"/>
<path d="M1775 770 c-3 -5 -1 -10 4 -10 6 0 11 5 11 10 0 6 -2 10 -4 10 -3 0
-8 -4 -11 -10z"/>
<path d="M905 750 c10 -11 20 -20 23 -20 3 0 -3 9 -13 20 -10 11 -20 20 -23
20 -3 0 3 -9 13 -20z"/>
<path d="M1976 762 c-3 -6 -1 -14 5 -17 15 -10 25 3 12 16 -7 7 -13 7 -17 1z"/>
<path d="M1010 746 c0 -2 8 -10 18 -17 15 -13 16 -12 3 4 -13 16 -21 21 -21
13z"/>
<path d="M1770 729 c0 -5 5 -7 10 -4 6 3 10 8 10 11 0 2 -4 4 -10 4 -5 0 -10
-5 -10 -11z"/>
<path d="M947 719 c7 -7 15 -10 18 -7 3 3 -2 9 -12 12 -14 6 -15 5 -6 -5z"/>
<path d="M1435 680 c3 -5 14 -10 23 -10 15 0 15 2 2 10 -20 13 -33 13 -25 0z"/>
<path d="M1636 675 c-17 -13 -15 -14 18 -8 23 4 36 2 36 -6 0 -6 -8 -11 -17
-11 -15 0 -13 -4 7 -25 22 -21 29 -23 55 -15 l30 10 -32 -5 c-41 -6 -51 10
-22 34 l22 18 -33 11 c-41 15 -41 15 -64 -3z"/>
<path d="M1054 656 c11 -9 24 -16 30 -16 12 0 7 5 -24 19 -24 11 -24 11 -6 -3z"/>
<path d="M1308 663 c7 -3 16 -2 19 1 4 3 -2 6 -13 5 -11 0 -14 -3 -6 -6z"/>
<path d="M1758 663 c7 -3 16 -2 19 1 4 3 -2 6 -13 5 -11 0 -14 -3 -6 -6z"/>
<path d="M1484 639 c-3 -6 -19 -9 -34 -5 -36 7 -45 -3 -19 -22 12 -8 24 -11
28 -6 14 20 50 34 57 22 8 -13 -25 -40 -39 -31 -6 3 -7 1 -3 -5 5 -8 13 -8 31
0 28 13 33 43 9 52 -21 8 -22 8 -30 -5z"/>
<path d="M1905 640 c-3 -5 -1 -10 4 -10 6 0 11 5 11 10 0 6 -2 10 -4 10 -3 0
-8 -4 -11 -10z"/>
<path d="M1110 630 c0 -8 50 -24 56 -18 2 2 -10 9 -26 15 -17 6 -30 8 -30 3z"/>
<path d="M1595 630 c-3 -5 1 -10 9 -10 9 0 16 5 16 10 0 6 -4 10 -9 10 -6 0
-13 -4 -16 -10z"/>
<path d="M1185 600 c3 -5 8 -10 11 -10 2 0 4 5 4 10 0 6 -5 10 -11 10 -5 0 -7
-4 -4 -10z"/>
<path d="M1408 603 c7 -3 16 -2 19 1 4 3 -2 6 -13 5 -11 0 -14 -3 -6 -6z"/>
<path d="M1274 575 c11 -8 25 -15 30 -15 6 0 2 7 -8 15 -11 8 -25 15 -30 15
-6 0 -2 -7 8 -15z"/>
<path d="M1538 573 c7 -3 16 -2 19 1 4 3 -2 6 -13 5 -11 0 -14 -3 -6 -6z"/>
<path d="M1480 560 c0 -5 5 -10 10 -10 6 0 10 5 10 10 0 6 -4 10 -10 10 -5 0
-10 -4 -10 -10z"/>
<path d="M1528 543 c7 -3 16 -2 19 1 4 3 -2 6 -13 5 -11 0 -14 -3 -6 -6z"/>
</g>
</svg>
